<svg xmlns="http://www.w3.org/2000/svg" version="1.1" xmlns:xlink="http://www.w3.org/1999/xlink"
    xmlns:svgjs="http://svgjs.dev/svgjs" width="1440" height="560" preserveAspectRatio="none"
    viewBox="0 0 1440 560">
    <g mask="url(&quot;#SvgjsMask2088&quot;)" fill="none">
        <rect width="1440" height="560" x="0" y="0" fill="url(&quot;#SvgjsLinearGradient2089&quot;)"></rect>
        <path
            d="M1560 560L0 560 L0 487.39Q43.09 410.48, 120 453.56Q191.19 404.75, 240 475.93Q306.56 422.49, 360 489.04Q407.07 416.12, 480 463.19Q508.66 419.85, 552 448.51Q630.78 407.29, 672 486.08Q719.61 413.69, 792 461.29Q846.48 395.77, 912 450.26Q961.64 427.9, 984 477.54Q1038.87 412.41, 1104 467.28Q1177.99 421.26, 1224 495.25Q1253.04 452.29, 1296 481.33Q1318.04 431.37, 1368 453.4Q1411.89 425.29, 1440 469.18Q1512.41 421.6, 1560 494.01z"
            fill="rgba(88, 88, 88, 1)"></path>
        <path
            d="M1464 560L0 560 L0 516.13Q32.66 476.79, 72 509.45Q124.69 442.14, 192 494.83Q268.13 450.96, 312 527.09Q339.96 483.05, 384 511.01Q457.05 464.06, 504 537.1Q521.11 482.21, 576 499.31Q606.69 458, 648 488.69Q722.72 443.41, 768 518.14Q798.52 476.66, 840 507.18Q910.58 457.76, 960 528.34Q1003.89 452.23, 1080 496.12Q1148.91 445.04, 1200 513.95Q1242.95 484.9, 1272 527.86Q1286.81 470.67, 1344 485.48Q1420.12 441.6, 1464 517.71z"
            fill="rgba(166, 166, 166, 1)"></path>
        <path
            d="M1536 560L0 560 L0 574Q35.34 537.34, 72 572.67Q124.01 504.68, 192 556.69Q218.55 511.24, 264 537.79Q294.98 496.77, 336 527.75Q387.5 507.25, 408 558.74Q451.59 530.33, 480 573.91Q493.72 515.63, 552 529.34Q596.49 501.83, 624 546.32Q674 524.32, 696 574.32Q706.44 512.76, 768 523.19Q839.55 474.74, 888 546.29Q957.07 495.36, 1008 564.42Q1049.14 533.56, 1080 574.69Q1102.16 524.85, 1152 547.01Q1195.19 518.2, 1224 561.39Q1247.66 513.05, 1296 536.7Q1349.66 470.37, 1416 524.03Q1492.29 480.32, 1536 556.61z"
            fill="rgba(224, 224, 224, 1)"></path>
    </g>
    <defs>
        <mask id="SvgjsMask2088">
            <rect width="1440" height="560" fill="#ffffff"></rect>
        </mask>
        <linearGradient x1="15.28%" y1="-39.29%" x2="84.72%" y2="139.29%"
            gradientUnits="userSpaceOnUse" id="SvgjsLinearGradient2089">
            <stop stop-color="rgba(0, 3, 6, 1)" offset="0.17"></stop>
            <stop stop-color="rgba(227, 218, 204, 1)" offset="0.94"></stop>
            <stop stop-color="rgba(227, 218, 204, 1)" offset="1"></stop>
        </linearGradient>
    </defs>
</svg>