<svg version="1.0" xmlns="http://www.w3.org/2000/svg" width="300.000000pt" height="83.000000pt"
    viewBox="0 0 300.000000 83.000000" preserveAspectRatio="xMidYMid meet">
    <g transform="translate(0.000000,83.000000) scale(0.050000,-0.050000)" fill="#000000"
        stroke="none">
        <path
            d="M748 1534 c-30 -62 -44 -70 -133 -81 -107 -13 -237 -79 -312 -159 -40 -43 -55 -48 -110 -32 -123 35 -146 -1 -80 -128 21 -41 32 -102 29 -167 -8 -173 74 -303 168 -267 l53 20 -62 62 c-167 167 18 436 226 328 76 -40 93 -38 93 11 0 58 53 154 99 178 171 92 382 -102 297 -273 -29 -58 -31 -185 -5 -338 29 -177 -94 -297 -291 -283 -133 9 -289 -25 -244 -53 19 -11 17 -25 -6 -58 -52 -74 -39 -110 41 -110 53 0 79 12 102 48 47 71 247 71 294 0 23 -36 49 -48 102 -48 83 0 91 31 31 117 l-41 56 43 30 c62 44 131 154 158 251 25 94 16 120 -28 84 -22 -18 -32 -18 -43 0 -8 13 1 32 23 44 136 76 356 350 381 473 19 97 -32 94 -194 -9 -190 -123 -191 -123 -206 -52 -13 65 -135 214 -190 231 -19 6 -47 49 -64 96 -38 110 -87 121 -131 29z" />
        <path
            d="M880 1161 c0 -46 -63 -83 -75 -45 -11 32 -65 30 -65 -2 0 -39 43 -74 91 -74 53 0 115 65 106 112 -10 52 -57 59 -57 9z" />
        <path d="M593 1011 c-17 -45 4 -87 51 -102 47 -15 79 21 71 81 -6 51 -104 67 -122 21z" />
        <path
            d="M458 990 c-2 -11 -6 -29 -9 -40 -2 -11 -5 -31 -7 -45 -3 -35 -61 -31 -75 5 -16 43 -47 37 -47 -9 0 -54 65 -86 126 -63 59 23 79 87 43 136 -15 20 -29 27 -31 16z" />
        <path
            d="M600 790 c-159 -81 -305 -148 -323 -149 -70 -2 -75 -105 -8 -172 69 -69 173 -65 327 12 188 94 401 361 343 431 -32 38 -12 45 -339 -122z" />
        <path
            d="M1620 902 c-149 -22 -267 -131 -245 -227 9 -40 23 -42 93 -16 44 17 50 28 39 80 -10 52 -5 63 42 81 86 33 138 26 120 -15 -39 -91 -73 -209 -105 -365 -37 -183 -90 -234 -147 -143 -20 32 -32 35 -71 18 -54 -25 -57 -41 -16 -82 121 -121 347 -11 380 185 19 116 61 104 100 -30 38 -132 105 -208 184 -208 60 0 186 67 186 99 0 32 -42 47 -66 23 -82 -82 -256 199 -177 286 22 23 59 84 83 136 62 133 95 156 139 98 30 -40 41 -43 78 -24 55 30 54 52 -1 91 -118 82 -224 26 -323 -169 -53 -104 -77 -131 -118 -136 l-52 -6 31 126 c55 224 51 229 -154 198z" />
        <path
            d="M2570 907 c-118 -15 -148 -28 -208 -89 -99 -98 -71 -216 37 -159 29 16 38 36 31 67 -15 64 13 94 100 108 70 11 75 9 60 -26 -148 -340 -147 -583 2 -620 64 -16 206 24 221 63 14 37 47 38 47 1 0 -82 140 -89 240 -13 71 55 28 100 -48 51 -90 -60 -77 119 39 510 32 107 17 128 -72 105 l-67 -17 -55 -245 c-67 -303 -130 -407 -226 -371 -70 27 -65 145 19 436 64 222 64 222 -120 199z" />
        <path
            d="M3508 906 c-147 -29 -221 -197 -129 -295 l45 -48 -67 -34 c-140 -70 -175 -183 -89 -283 88 -101 403 -62 480 60 38 59 -19 90 -73 39 -112 -106 -295 -85 -295 33 0 77 56 121 180 140 93 15 139 43 140 87 0 8 -40 15 -90 15 -72 0 -95 9 -121 49 -71 108 76 227 172 140 33 -30 46 -31 101 -8 l64 26 -54 47 c-53 45 -143 56 -264 32z" />
        <path
            d="M4160 902 c-175 -27 -312 -176 -234 -255 37 -37 124 29 124 95 0 62 7 70 75 86 93 23 106 11 69 -61 -16 -31 -49 -142 -73 -247 -23 -104 -48 -206 -53 -225 -15 -49 -102 -46 -118 4 -10 34 -19 36 -61 17 -57 -26 -60 -42 -18 -85 123 -122 336 -19 378 184 21 98 57 78 99 -57 57 -181 197 -235 320 -120 42 39 42 39 98 -9 69 -60 160 -63 248 -10 84 52 95 75 155 343 29 125 60 247 70 271 57 135 -346 84 -419 -53 -51 -95 -4 -165 80 -120 33 17 41 35 32 70 -14 55 48 110 122 110 50 0 57 -22 25 -75 -12 -19 -46 -138 -76 -265 -57 -245 -107 -306 -163 -200 -21 39 -26 40 -69 13 -33 -22 -52 -24 -67 -9 -15 15 -31 16 -48 2 -74 -57 -96 -47 -151 68 -42 86 -49 114 -28 121 169 59 225 302 86 373 -66 34 -284 52 -403 34z m301 -99 c103 -83 23 -263 -117 -263 -61 0 -67 5 -57 45 7 25 23 92 36 150 26 116 59 132 138 68z" />
        <path
            d="M5580 888 c-175 -75 -185 -190 -30 -339 120 -115 146 -207 75 -261 -81 -62 -225 -11 -225 79 0 45 53 64 90 33 24 -20 36 -20 62 1 29 24 28 29 -4 53 -136 99 -327 -95 -209 -213 143 -143 481 -10 481 189 0 66 -15 90 -120 190 -66 63 -120 128 -120 143 0 76 118 104 184 44 33 -31 43 -31 101 -3 l65 30 -70 43 c-81 50 -181 54 -280 11z" />
    </g>
</svg> 