<svg version="1.0" xmlns="http://www.w3.org/2000/svg" width="179.000000pt" height="175.000000pt"
    viewBox="0 0 179.000000 175.000000" preserveAspectRatio="xMidYMid meet">
    <g transform="translate(0.000000,175.000000) scale(0.050000,-0.050000)" fill="#000000"
        stroke="none">
        <path
            d="M1746 3335 c-23 -25 -69 -95 -104 -156 l-62 -112 -167 -22 c-310 -42 -535 -150 -726 -350 l-110 -116 -159 33 c-292 59 -334 -37 -138 -321 60 -89 61 -90 39 -232 -36 -228 12 -436 148 -643 73 -112 94 -116 254 -44 l117 52 -84 44 c-398 208 -243 856 204 856 123 0 270 -51 319 -110 46 -56 103 -8 103 85 0 414 544 613 811 297 133 -158 150 -418 39 -580 l-60 -86 37 -76 c35 -72 35 -81 4 -178 -33 -98 -32 -105 10 -203 202 -470 -274 -938 -777 -765 -104 35 -108 35 -200 -4 -52 -21 -129 -45 -173 -53 l-78 -14 63 -41 c38 -23 58 -49 50 -63 -8 -13 -39 -63 -70 -112 -107 -170 -56 -281 84 -181 l56 40 12 -50 c22 -87 105 -36 225 137 l39 57 243 3 242 3 91 -125 c50 -69 104 -125 121 -125 33 0 77 67 57 87 -29 30 20 10 72 -29 149 -110 184 17 56 207 l-88 131 142 147 c154 160 258 342 290 508 50 260 48 266 -66 179 -81 -62 -85 -62 -97 -1 -8 42 8 60 103 123 424 280 925 1025 784 1166 -62 62 -64 61 -459 -188 -428 -270 -373 -251 -402 -138 -54 217 -204 418 -402 540 -106 65 -121 83 -147 175 -67 229 -169 332 -246 248z m98 -326 c31 -68 2 -93 -112 -96 -51 -2 -92 -11 -92 -21 0 -10 -6 -13 -14 -5 -17 18 134 173 168 173 15 0 37 -23 50 -51z m-254 -149 c-7 -11 -23 -20 -36 -20 -40 -1 -250 -227 -265 -285 -7 -29 -23 -52 -35 -49 -12 2 -23 -6 -23 -19 -1 -30 -31 -61 -31 -33 0 27 -100 49 -240 53 -82 2 -109 -4 -104 -24 3 -18 -8 -22 -35 -13 -43 13 -101 -17 -238 -126 -92 -74 -131 -67 -146 26 -6 33 6 41 63 46 39 3 84 11 100 18 17 7 37 11 45 9 8 -2 15 6 15 17 0 11 14 20 30 20 17 0 30 13 30 29 0 16 10 35 23 43 14 9 18 5 9 -9 -9 -14 -1 -23 19 -23 20 0 29 11 23 28 -11 27 62 112 96 112 10 0 36 17 59 38 80 73 255 148 378 163 192 21 277 21 263 -1z m1532 -549 c-22 -50 -54 -97 -71 -103 -17 -7 -31 -26 -31 -42 0 -49 -105 -149 -126 -120 -12 15 -13 10 -5 -14 14 -44 -82 -159 -115 -138 -11 7 -14 2 -7 -10 14 -22 -109 -134 -147 -134 -11 0 -18 -6 -15 -13 5 -14 -186 -177 -208 -177 -33 0 -11 391 27 476 20 47 32 94 25 105 -6 11 -5 19 5 17 9 -1 21 -1 26 2 6 2 51 6 100 8 84 5 322 101 337 136 3 9 14 16 24 16 10 0 61 27 113 61 111 70 124 56 68 -70z" />
        <path
            d="M1968 2451 c-7 -17 -6 -55 1 -83 28 -113 -145 -184 -192 -79 -41 89 -148 66 -123 -27 51 -196 391 -165 436 40 23 104 -88 240 -122 149z" />
        <path d="M1340 2066 c-72 -92 -23 -193 124 -253 l73 -30 32 92 c71 209 -102 352 -229 191z" />
        <path
            d="M1011 1981 c-7 -11 -7 -51 0 -88 24 -128 -107 -175 -193 -70 -59 72 -118 68 -118 -9 0 -217 390 -202 430 17 18 99 -77 219 -119 150z" />
        <path
            d="M1301 1549 c-369 -181 -690 -329 -716 -329 -93 0 -113 -178 -35 -311 172 -294 706 -196 1134 208 388 366 568 767 341 762 -30 -1 -356 -150 -724 -330z m566 41 c-6 -16 -18 -30 -27 -30 -9 0 -21 -20 -27 -45 -14 -58 -172 -238 -196 -223 -9 6 -17 -4 -17 -21 0 -38 -217 -211 -265 -211 -19 0 -35 -9 -35 -20 0 -31 -153 -100 -224 -100 -47 -1 -58 -6 -37 -19 40 -26 -218 -3 -274 24 -82 40 -73 172 10 140 20 -7 27 -4 18 11 -9 13 11 35 46 54 34 17 61 26 61 19 0 -7 23 6 51 28 28 23 85 51 125 63 93 29 234 96 321 155 37 24 76 39 87 33 10 -7 36 4 57 23 22 19 39 29 39 21 0 -7 20 5 45 28 24 23 85 54 135 69 117 36 121 36 107 1z" />
    </g>
</svg> 